<svg xmlns="http://www.w3.org/2000/svg" viewBox="0 0 200 200" width="200" height="200">
<!-- 山田 太郎 -->
<rect width="200" height="200" fill="#e3ecd8"/>
<path d="M26 200 C 30 164, 66 150, 100 150 C 134 150, 170 164, 174 200 Z" fill="#c2a14d"/>
<path d="M86 132 L 114 132 L 116 154 C 106 160, 94 160, 84 154 Z" fill="#e9bf9f"/>
<path d="M86 150 Q 100 162 114 150" fill="none" stroke="#000" stroke-opacity=".08" stroke-width="4"/>
<circle cx="57" cy="104" r="9" fill="#e9bf9f"/><circle cx="143" cy="104" r="9" fill="#e9bf9f"/>
<ellipse cx="100" cy="100" rx="43" ry="49" fill="#e9bf9f"/>
<path d="M54 104 C 48 56, 78 38, 104 40 C 134 42, 154 62, 146 104 C 142 88, 134 76, 120 70 C 104 80, 80 82, 62 80 C 58 88, 55 96, 54 104 Z" fill="#3d2b22"/>
<path d="M76 90 Q 83 86 90 90 M 110 90 Q 117 86 124 90" fill="none" stroke="#3d2b22" stroke-width="3" stroke-linecap="round" opacity=".8"/>
<ellipse cx="83" cy="104" rx="4.5" ry="6" fill="#2b2320"/><ellipse cx="117" cy="104" rx="4.5" ry="6" fill="#2b2320"/>
<circle cx="84.5" cy="102" r="1.6" fill="#fff"/><circle cx="118.5" cy="102" r="1.6" fill="#fff"/>
<circle cx="72" cy="120" r="7" fill="#f29a91" opacity=".35"/><circle cx="128" cy="120" r="7" fill="#f29a91" opacity=".35"/>
<path d="M91 123 Q 100 124 109 123 Q 107 134 100 134 Q 93 134 91 123 Z" fill="#b8574c"/>
</svg>
